# xmcd
#
# Track frame offsets:
#	150
#	19990
#	40273
#	65930
#	89393
#	115295
#	133008
#	160778
#	183483
#	199173
#	221123
#	241453
#
# Disc length: 3460 seconds
#
# Revision: 0
# Processed by: cddbd v1.5.2PL0 Copyright (c) Steve Scherf et al.
# Submitted via: dBpowerAMP V4.0
#
DISCID=b60d820c
DTITLE=Gary B.B. Coleman - The Best of Gary B.B. Coleman
DYEAR=1990
DGENRE=Blues
TTITLE0=One Eyed Woman
TTITLE1=Baby Scratch My Back
TTITLE2=Cloud Nine
TTITLE3=A Word of Warning
TTITLE4=I Fell In Love On A One Night Stand
TTITLE5=Merry Christmas Baby
TTITLE6=Watch Where You Stroke
TTITLE7=Think Before You Act
TTITLE8=If You Can Beat Me Rockin´ (You Can Have My Chair)
TTITLE9=St. James Infirmary
TTITLE10=I Won't Be Your Fool
TTITLE11=Christmas Blues (Instrumental)
EXTD=
EXTT0=
EXTT1=
EXTT2=
EXTT3=
EXTT4=
EXTT5=
EXTT6=
EXTT7=
EXTT8=
EXTT9=
EXTT10=
EXTT11=
PLAYORDER=
